Coordinates
version=1
nRows=13
nColumns=33
inDegrees=yes

Units are S.I. units (second, meters, Newtons, ...)
Angles are in degrees.

endheader
time	ground_thorax_rot_x	ground_thorax_rot_y	ground_thorax_rot_z	ground_thorax_tx	ground_thorax_ty	ground_thorax_tz	clav_prot_r	clav_elev_r	scapula_abduction_r	scapula_elevation_r	scapula_upward_rot_r	scapula_winging_r	shoulder_elv_r	plane_of_elev_r	axial_rot_r	elbow_flexion_r	pro_sup_r	wrist_flex_r	wrist_dev_r	clav_prot_l	clav_elev_l	scapula_abduction_l	scapula_elevation_l	scapula_upward_rot_l	scapula_winging_l	shoulder_elv_l	plane_of_elev_l	axial_rot_l	elbow_flexion_l	pro_sup_l	wrist_flex_l	wrist_dev_l	
9.9300	-18.459830	-34.111538	57.696863	97.789861	772.030969	-39.425708	29.002949	-45.000000	39.968996	-45.000000	-45.000000	-2619.831486	-4608.253993	18.311055	-137.286743	1800.957445	-185.049964	12.852315	12.128116	-0.995614	29.560445	-25.430752	-45.000000	-45.000000	-5681.708841	-2085.756410	26.403207	50.479266	-10.162033	-313.603936	11.480362	-13.805822	
9.9400	-18.592040	-34.072209	57.577629	97.371766	771.645443	-39.367379	28.905440	-45.000000	39.913176	-45.000000	-45.000000	-2619.873050	-4608.191087	18.318284	-137.011348	1800.960549	-184.973192	12.897913	12.059924	-0.970772	29.515105	-25.478826	-45.000000	-45.000000	-5681.671544	-2085.741703	26.371875	50.435107	-10.155578	-313.615398	11.467617	-13.828633	
9.9500	-18.751403	-34.032849	57.421013	96.904556	771.269081	-39.331403	28.790302	-45.000000	39.800272	-45.000000	-45.000000	-2619.901460	-4608.105588	18.353923	-136.662086	1800.948019	-184.847090	12.935809	12.023213	-0.944120	29.440909	-25.487691	-45.000000	-45.000000	-5681.647654	-2085.701681	26.376756	50.381499	-10.149567	-313.597701	11.377219	-13.866025	
9.9600	-18.902930	-33.995422	57.283279	96.333298	770.906147	-39.336227	28.738227	-45.000000	39.747668	-45.000000	-45.000000	-2619.935168	-4608.037374	18.349475	-136.398495	1800.936603	-184.665507	12.978628	11.965770	-0.919888	29.407122	-25.524673	-45.000000	-45.000000	-5681.605414	-2085.685719	26.361481	50.279019	-10.129695	-313.516255	11.350639	-13.904884	
9.9700	-19.072803	-33.959865	57.132243	95.638106	770.576665	-39.406707	28.712935	-45.000000	39.706942	-45.000000	-45.000000	-2619.966853	-4607.975507	18.333701	-136.151794	1800.913291	-184.410630	13.021478	11.902713	-0.893595	29.392612	-25.564161	-45.000000	-45.000000	-5681.554884	-2085.674430	26.349935	50.145006	-10.093109	-313.362563	11.351875	-13.948725	
9.9800	-19.273309	-33.926491	56.960459	94.788074	770.304335	-39.574075	28.710862	-45.000000	39.668549	-45.000000	-45.000000	-2619.983948	-4607.914249	18.295478	-135.908833	1800.866184	-184.069585	13.060102	11.851749	-0.860524	29.378687	-25.611706	-45.000000	-45.000000	-5681.498274	-2085.670057	26.338454	49.980176	-10.046561	-313.129960	11.330985	-14.011495	
9.9900	-19.530291	-33.902780	56.749942	93.735888	770.166129	-39.936457	28.714835	-45.000000	39.625670	-45.000000	-45.000000	-2619.979422	-4607.867182	18.231740	-135.645913	1800.778132	-183.644353	13.088067	11.795237	-0.808394	29.376006	-25.664463	-45.000000	-45.000000	-5681.434169	-2085.670783	26.326658	49.797185	-9.972857	-312.815010	11.323723	-14.082929	
10.0000	-19.869259	-33.885296	56.480322	92.454684	770.210324	-40.552201	28.714283	-45.000000	39.556003	-45.000000	-45.000000	-2619.938840	-4607.827835	18.133353	-135.337529	1800.628073	-183.142477	13.099782	11.753738	-0.731116	29.353610	-25.728790	-45.000000	-45.000000	-5681.363066	-2085.675640	26.321986	49.607112	-9.885853	-312.428923	11.272698	-14.178475	
10.0100	-20.379610	-33.894278	56.105848	90.776720	770.775478	-41.864123	28.717144	-45.000000	39.456537	-45.000000	-45.000000	-2619.824747	-4607.826017	17.945201	-134.958532	1800.320290	-182.610550	13.034106	11.711750	-0.592862	29.342791	-25.808897	-45.000000	-45.000000	-5681.288171	-2085.696499	26.330344	49.380713	-9.764839	-311.967601	11.230889	-14.283514	
10.0200	-21.049712	-33.906717	55.619572	88.768067	771.766426	-43.727471	28.699898	-45.000000	39.313791	-45.000000	-45.000000	-2619.631308	-4607.846650	17.676512	-134.546958	1799.881921	-182.108906	12.907626	11.682673	-0.386688	29.320493	-25.917106	-45.000000	-45.000000	-5681.220948	-2085.721413	26.347257	49.157506	-9.632521	-311.458669	11.156552	-14.399422	
10.0300	-21.846835	-33.915802	55.037988	86.491984	773.103020	-46.015341	28.665796	-45.000000	39.144621	-45.000000	-45.000000	-2619.377799	-4607.895884	17.356730	-134.133923	1799.354817	-181.697049	12.731315	11.661415	-0.130606	29.296858	-26.045249	-45.000000	-45.000000	-5681.157643	-2085.750693	26.372266	48.947018	-9.483025	-310.924252	11.095855	-14.506676	
10.0400	-22.643737	-33.885286	54.434246	84.189006	774.358788	-48.137314	28.607135	-45.000000	38.966032	-45.000000	-45.000000	-2619.126564	-4607.939330	17.058172	-133.791871	1798.867936	-181.414587	12.594079	11.667505	0.125925	29.262135	-26.189854	-45.000000	-45.000000	-5681.095416	-2085.766918	26.397495	48.789209	-9.353089	-310.407394	11.027955	-14.610315	
10.0500	-23.404872	-33.824341	53.847170	81.881870	775.518169	-50.055300	28.549783	-45.000000	38.799090	-45.000000	-45.000000	-2618.898804	-4607.974316	16.793158	-133.516969	1798.438750	-181.290017	12.516112	11.714381	0.359511	29.242066	-26.325197	-45.000000	-45.000000	-5681.034412	-2085.775216	26.422796	48.640204	-9.237929	-309.921555	10.972143	-14.703699	
